<svg data-v-423bf9ae="" xmlns="http://www.w3.org/2000/svg" viewBox="0 0 312.6470480006064 185" class="iconAbove"><!----><!----><!----><g data-v-423bf9ae="" id="2f4db79c-93d8-49a3-9826-3fa4a7779245" fill="black" transform="matrix(4.2016807508382215,0,0,4.2016807508382215,-3.823528939847847,117.0522831690765)"><path d="M4.47 7.67L5.08 6.47C4.79 6.17 4.39 6.02 3.88 6.02C3.63 6.02 3.37 6.11 3.12 6.29C2.86 6.47 2.64 6.72 2.45 7.03L2.45 6.16L0.91 6.16L0.91 12.60L2.45 12.60L2.45 8.82C2.45 7.84 2.81 7.35 3.53 7.35C3.85 7.35 4.17 7.46 4.47 7.67ZM10.65 8.69L7.10 8.69C7.16 8.26 7.38 7.92 7.74 7.66C8.09 7.41 8.51 7.28 8.97 7.28C9.96 7.28 10.52 7.75 10.65 8.69ZM7.07 9.73L12.19 9.73C12.21 9.61 12.22 9.45 12.22 9.25C12.22 8.25 11.93 7.45 11.34 6.88C10.75 6.31 9.96 6.02 8.97 6.02C7.97 6.02 7.15 6.33 6.52 6.96C5.89 7.59 5.57 8.40 5.57 9.38C5.57 10.38 5.87 11.19 6.47 11.81C7.08 12.43 7.91 12.74 8.97 12.74C10.38 12.74 11.41 12.24 12.07 11.24L10.96 10.56C10.61 11.13 9.94 11.41 8.97 11.41C8.46 11.41 8.03 11.27 7.69 10.98C7.34 10.69 7.14 10.27 7.07 9.73ZM14.20 8.01C14.84 7.54 15.50 7.31 16.18 7.31C17.09 7.31 17.54 7.56 17.54 8.05L17.54 8.90C17.08 8.65 16.52 8.53 15.88 8.53C15.05 8.53 14.37 8.72 13.82 9.11C13.27 9.51 12.99 10.06 12.99 10.78C12.99 11.43 13.22 11.92 13.68 12.25C14.14 12.58 14.69 12.74 15.34 12.74C15.84 12.74 16.28 12.65 16.67 12.46C17.05 12.27 17.35 12.01 17.54 11.68L17.54 12.60L19.01 12.60L19.01 7.98C19.01 7.32 18.76 6.82 18.24 6.50C17.73 6.18 17.04 6.02 16.18 6.02C15.27 6.02 14.42 6.30 13.65 6.87ZM14.41 10.64C14.41 10.36 14.56 10.12 14.87 9.90C15.18 9.70 15.58 9.59 16.07 9.59C16.60 9.59 17.09 9.67 17.54 9.84L17.54 10.08C17.54 10.65 17.39 11.05 17.10 11.27C16.81 11.49 16.36 11.61 15.76 11.61C14.86 11.61 14.41 11.28 14.41 10.64ZM20.27 9.38C20.27 10.44 20.58 11.27 21.21 11.86C21.84 12.45 22.61 12.74 23.53 12.74C24.53 12.74 25.29 12.31 25.80 11.45L25.80 12.60L27.27 12.60L27.27 1.68L25.80 1.68L25.80 7.31C25.29 6.45 24.53 6.02 23.53 6.02C22.61 6.02 21.84 6.31 21.21 6.90C20.58 7.49 20.27 8.32 20.27 9.38ZM21.76 9.38C21.76 8.73 21.95 8.22 22.32 7.87C22.70 7.52 23.20 7.35 23.81 7.35C24.36 7.35 24.83 7.52 25.22 7.85C25.61 8.18 25.80 8.69 25.80 9.38C25.80 10.07 25.61 10.58 25.22 10.91C24.83 11.24 24.36 11.41 23.81 11.41C23.20 11.41 22.70 11.23 22.32 10.88C21.95 10.54 21.76 10.03 21.76 9.38ZM28.81 3.64C28.81 3.89 28.91 4.11 29.09 4.28C29.28 4.46 29.50 4.55 29.76 4.55C30.03 4.55 30.25 4.46 30.44 4.28C30.62 4.11 30.72 3.89 30.72 3.64C30.72 3.39 30.62 3.17 30.44 3.00C30.25 2.82 30.03 2.73 29.76 2.73C29.50 2.73 29.28 2.82 29.09 3.00C28.91 3.17 28.81 3.39 28.81 3.64ZM29.02 6.16L29.02 12.60L30.51 12.60L30.51 6.16ZM33.73 7.15L33.73 6.16L32.26 6.16L32.26 12.60L33.73 12.60L33.73 8.96C33.73 8.51 33.89 8.13 34.22 7.82C34.55 7.51 34.93 7.35 35.36 7.35C35.77 7.35 36.08 7.45 36.29 7.64C36.49 7.83 36.60 8.18 36.60 8.68L36.60 12.60L38.07 12.60L38.07 8.54C38.07 7.63 37.87 6.98 37.47 6.59C37.07 6.21 36.51 6.02 35.78 6.02C34.90 6.02 34.21 6.40 33.73 7.15ZM40.81 9.38C40.81 8.73 41.00 8.22 41.38 7.87C41.76 7.52 42.25 7.35 42.87 7.35C43.42 7.35 43.89 7.52 44.28 7.85C44.66 8.18 44.86 8.69 44.86 9.38C44.86 10.07 44.66 10.58 44.28 10.91C43.89 11.24 43.42 11.41 42.87 11.41C42.25 11.41 41.76 11.23 41.38 10.88C41.00 10.54 40.81 10.03 40.81 9.38ZM39.38 13.02C39.38 13.92 39.69 14.63 40.31 15.16C40.93 15.69 41.76 15.96 42.78 15.96C43.74 15.96 44.56 15.65 45.27 15.04C45.97 14.43 46.33 13.57 46.33 12.46L46.33 6.16L44.86 6.16L44.86 7.31C44.34 6.45 43.59 6.02 42.59 6.02C41.66 6.02 40.89 6.31 40.26 6.90C39.64 7.49 39.33 8.32 39.33 9.38C39.33 10.44 39.64 11.27 40.26 11.86C40.89 12.45 41.66 12.74 42.59 12.74C43.59 12.74 44.34 12.31 44.86 11.45L44.86 12.46C44.86 13.15 44.65 13.67 44.23 14.03C43.82 14.38 43.33 14.56 42.78 14.56C42.19 14.56 41.72 14.41 41.38 14.11C41.04 13.80 40.87 13.44 40.87 13.02ZM47.31 9.94L50.11 9.94L50.11 8.61L47.31 8.61ZM51.23 3.92L51.23 6.16L50.18 6.16L50.18 7.49L51.23 7.49L51.23 12.60L52.70 12.60L52.70 7.49L53.75 7.49L53.75 6.16L52.70 6.16L52.70 3.92ZM54.38 3.64C54.38 3.89 54.47 4.11 54.66 4.28C54.84 4.46 55.07 4.55 55.33 4.55C55.59 4.55 55.81 4.46 56 4.28C56.19 4.11 56.28 3.89 56.28 3.64C56.28 3.39 56.19 3.17 56 3.00C55.81 2.82 55.59 2.73 55.33 2.73C55.07 2.73 54.84 2.82 54.66 3.00C54.47 3.17 54.38 3.39 54.38 3.64ZM54.59 6.16L54.59 12.60L56.07 12.60L56.07 6.16ZM59.29 8.68C59.29 8.28 59.42 7.96 59.68 7.71C59.94 7.47 60.31 7.35 60.79 7.35C61.17 7.35 61.45 7.45 61.62 7.66C61.79 7.87 61.88 8.21 61.88 8.68L61.88 12.60L63.35 12.60L63.35 8.68C63.35 8.28 63.48 7.96 63.74 7.71C64.00 7.47 64.37 7.35 64.85 7.35C65.23 7.35 65.51 7.45 65.68 7.66C65.85 7.87 65.94 8.21 65.94 8.68L65.94 12.60L67.41 12.60L67.41 8.40C67.41 6.81 66.70 6.02 65.27 6.02C64.33 6.02 63.61 6.41 63.11 7.20C62.78 6.41 62.14 6.02 61.21 6.02C60.41 6.02 59.77 6.36 59.29 7.03L59.29 6.16L57.82 6.16L57.82 12.60L59.29 12.60ZM73.75 8.69L70.20 8.69C70.26 8.26 70.47 7.92 70.83 7.66C71.19 7.41 71.61 7.28 72.07 7.28C73.06 7.28 73.62 7.75 73.75 8.69ZM70.17 9.73L75.29 9.73C75.31 9.61 75.32 9.45 75.32 9.25C75.32 8.25 75.03 7.45 74.44 6.88C73.85 6.31 73.06 6.02 72.07 6.02C71.06 6.02 70.25 6.33 69.61 6.96C68.98 7.59 68.67 8.40 68.67 9.38C68.67 10.38 68.97 11.19 69.57 11.81C70.17 12.43 71.01 12.74 72.07 12.74C73.48 12.74 74.51 12.24 75.17 11.24L74.06 10.56C73.71 11.13 73.04 11.41 72.07 11.41C71.56 11.41 71.13 11.27 70.78 10.98C70.44 10.69 70.23 10.27 70.17 9.73Z"></path></g><!----><g data-v-423bf9ae="" id="6ec7c414-c0e2-4353-8ba9-42ea0b5dde38" transform="matrix(1.1111111111111112,0,0,1.1111111111111112,120.28666687011719,0.44444444444444287)" stroke="none" fill="black"><path d="M19.354 0L0 6.911v66.004L47.722 100l4.081-1.458V95.92l10.201-3.644v2.623l4.08-1.457V26.551L19.354 0zm42.649 87.944l-10.2 3.643-.001-59.936L9.755 7.761l9.209-3.29 43.039 24.455v59.018z"></path></g><!----></svg>